#!OML:ASF F:\VICON\USERDATA\INSTALL\rory3\rory3.ASF
:FULLY-SPECIFIED
:DEGREES
1304
root 2.55515 19.1686 3.41484 19.7867 -8.9916 -12.7842
lowerback -3.3992 1.33925 4.73722
upperback -5.18156 1.80061 2.85796
thorax -3.3962 0.784072 0.307659
lowerneck -14.6998 -1.87512 -3.22548
upperneck 29.4274 -2.99288 3.63971
head 12.242 -1.25188 1.48586
rclavicle 2.25124e-014 -7.95139e-015
rhumerus -40.9407 13.8882 -83.2044
rradius 92.7389
rwrist 8.17086
rhand -24.4835 -37.6374
rfingers 7.12502
rthumb 2.01036 -787.608
lclavicle 2.25124e-014 -7.95139e-015
lhumerus -45.4962 -9.08301 84.2871
lradius 65.7249
lwrist -4.48858
lhand -31.0714 -42.3958
lfingers 7.12502
lthumb -4.35204 -12.4605
rfemur -73.4643 14.3398 29.908
rtibia 128.332
rfoot 1.66962 -15.6283
rtoes 4.95622
lfemur -23.5581 -1.1556 -15.3886
ltibia 32.3322
lfoot 12.6376 5.98319
ltoes -6.32161
1305
root 2.57514 19.0651 3.39529 20.5523 -8.14071 -12.869
lowerback -4.12216 1.19193 5.21847
upperback -5.2585 1.54525 2.84641
thorax -3.06886 0.644041 0.0407151
lowerneck -15.1513 -1.95512 -3.08681
upperneck 29.0906 -3.11388 3.61557
head 12.2037 -1.28795 1.42869
rclavicle -3.27001e-014 -4.77083e-014
rhumerus -41.2621 13.541 -83.5465
rradius 92.398
rwrist 8.23195
rhand -24.0451 -38.7462
rfingers 7.12502
rthumb 2.43379 -788.712
lclavicle -3.27001e-014 -4.77083e-014
lhumerus -46.2004 -8.57784 84.7282
lradius 65.3205
lwrist -4.82047
lhand -30.8214 -42.3102
lfingers 7.12502
lthumb -4.11064 -12.3701
rfemur -72.6516 12.888 30.1778
rtibia 127.833
rfoot 1.21574 -15.6343
rtoes 5.39794
lfemur -23.5657 -1.78506 -15.1205
ltibia 31.3664
lfoot 12.5803 5.80554
ltoes -7.33455
1306
root 2.58272 18.9146 3.34781 22.2118 -8.36995 -13.0918
lowerback -5.44203 1.42727 5.32812
upperback -5.59091 1.76753 2.79783
thorax -2.66679 0.754095 -0.0377273
lowerneck -15.669 -2.01271 -2.92635
upperneck 28.8506 -3.20462 3.5671
head 12.2154 -1.31065 1.36361
rclavicle 1.40143e-014 -2.38542e-015
rhumerus -41.8225 13.2208 -83.9579
rradius 92.2049
rwrist 7.88637
rhand -23.8985 -39.5249
rfingers 7.12502
rthumb 2.57538 -789.489
lclavicle 1.40143e-014 -2.38542e-015
lhumerus -46.9432 -8.11431 85.1225
lradius 65.037
lwrist -5.04991
lhand -30.735 -42.2098
lfingers 7.12502
lthumb -4.02721 -12.2681
rfemur -73.7334 12.9507 30.0107
rtibia 127.826
rfoot 1.70487 -15.589
rtoes 4.61388
lfemur -24.7631 -1.25419 -15.1293
ltibia 31.0861
lfoot 10.7239 6.43036
ltoes -11.895
1307
root 2.5856 18.7517 3.29855 23.3697 -8.29006 -13.0073
lowerback -6.31835 1.48075 5.1261
upperback -5.82346 1.7884 2.75381
thorax -2.42464 0.772312 0.0492519
lowerneck -16.1471 -2.07583 -2.85695
upperneck 28.5692 -3.28431 3.54219
head 12.2037 -1.33625 1.32455
rclavicle -1.86858e-014 -5.48646e-014
rhumerus -42.2477 12.8858 -84.2422
rradius 92.0031
rwrist 7.56353
rhand -23.7577 -39.8867
rfingers 7.12502
rthumb 2.71136 -789.849
lclavicle -1.86858e-014 -5.48646e-014
lhumerus -47.792 -7.59057 85.4982
lradius 65.0172
lwrist -5.11761
lhand -30.4545 -42.2443
lfingers 7.12502
lthumb -3.75638 -12.2976
rfemur -74.2336 12.2224 29.8105
rtibia 127.849
rfoot 2.32438 -15.4264
rtoes 2.88714
lfemur -25.6547 -0.894086 -15.3989
ltibia 31.0717
lfoot 7.91557 7.03703
ltoes -15.9564
1308
root 2.58676 18.5229 3.23762 24.1975 -7.86756 -12.7455
lowerback -7.00159 1.41408 4.95039
upperback -5.94072 1.6606 2.68535
thorax -2.17436 0.716091 0.0854057
lowerneck -16.6374 -2.21959 -2.83026
upperneck 28.239 -3.45359 3.47903
head 12.1788 -1.41152 1.26395
rclavicle -1.2921e-015 -3.10104e-014
rhumerus -42.5563 12.566 -84.4516
rradius 91.8928
rwrist 7.17751
rhand -23.6399 -39.5026
rfingers 7.12502
rthumb 2.82513 -789.464
lclavicle -1.2921e-015 -3.10104e-014
lhumerus -48.4598 -7.22991 85.8504
lradius 64.8768
lwrist -5.13807
lhand -29.992 -42.5996
lfingers 7.12502
lthumb -3.30973 -12.6456
rfemur -74.5927 10.9521 29.6716
rtibia 128.306
rfoot 1.41509 -15.4878
rtoes 3.86751
lfemur -26.652 -0.799507 -15.7334
ltibia 31.591
lfoot 4.76547 7.57374
ltoes -16.8585
1309
root 2.59399 18.3557 3.20269 24.9128 -7.05678 -12.8242
lowerback -7.53949 1.31367 5.32469
upperback -6.11841 1.47567 2.72142
thorax -2.06461 0.611454 -0.0850036
lowerneck -16.8027 -2.4406 -3.00962
upperneck 27.8452 -3.73059 3.59148
head 12.0746 -1.53886 1.28996
rclavicle 9.24349e-015 6.36111e-015
rhumerus -43.1471 12.2643 -84.7135
rradius 91.8876
rwrist 6.77755
rhand -23.4898 -39.5669
rfingers 7.12502
rthumb 2.97006 -789.526
lclavicle 9.24349e-015 6.36111e-015
lhumerus -49.2761 -6.99684 86.2443
lradius 64.7299
lwrist -5.23093
lhand -29.4858 -42.818
lfingers 7.12502
lthumb -2.82089 -12.8569
rfemur -74.0176 9.60683 30.0493
rtibia 128.02
rfoot 0.551109 -15.6157
rtoes 5.04404
lfemur -27.4228 -0.557233 -15.6397
ltibia 32.1766
lfoot 0.671931 8.01699
ltoes -17.8552
1310
root 2.5905 18.1736 3.12525 25.3848 -6.55415 -12.4268
lowerback -7.1966 1.17373 4.85865
upperback -6.48772 1.35828 2.67284
thorax -2.65149 0.552828 0.108829
lowerneck -16.5691 -2.60101 -3.24261
upperneck 27.2598 -3.93554 3.80494
head 11.8164 -1.63321 1.37598
rclavicle -1.53064e-014 1.82882e-014
rhumerus -44.0004 11.8357 -84.9771
rradius 92.0239
rwrist 6.3854
rhand -23.2499 -39.7399
rfingers 7.12502
rthumb 3.20177 -789.696
lclavicle -1.53064e-014 1.82882e-014
lhumerus -50.2877 -6.79385 86.6638
lradius 64.7399
lwrist -5.47622
lhand -29.086 -42.4047
lfingers 7.12502
lthumb -2.43474 -12.4389
rfemur -73.9792 8.1413 29.9709
rtibia 128.017
rfoot 0.082113 -15.6306
rtoes 8.00478
lfemur -28.3243 -0.10832 -16.1581
ltibia 33.0378
lfoot -3.87475 8.60776
ltoes -20.7215
1311
root 2.58165 17.9867 3.05048 25.962 -6.08458 -12.1375
lowerback -7.00718 1.07779 4.39236
upperback -6.87206 1.28397 2.65229
thorax -3.1688 0.521121 0.339008
lowerneck -16.2058 -2.72019 -3.32114
upperneck 26.6076 -4.09507 3.91251
head 11.5025 -1.70753 1.40392
rclavicle 1.16289e-014 -1.19271e-014
rhumerus -44.7708 11.2949 -85.1886
rradius 92.1593
rwrist 6.03421
rhand -22.933 -39.936
rfingers 7.12502
rthumb 3.50778 -789.887
lclavicle 1.16289e-014 -1.19271e-014
lhumerus -51.2272 -6.74138 87.0804
lradius 64.7288
lwrist -5.58104
lhand -28.9853 -42.2854
lfingers 7.12502
lthumb -2.3375 -12.3184
rfemur -73.9514 6.99311 30.0538
rtibia 127.885
rfoot -0.112764 -15.797
rtoes 5.35506
lfemur -29.4622 0.478472 -16.5597
ltibia 33.9131
lfoot -7.11786 8.54147
ltoes -18.8813
1312
root 2.57194 17.7952 2.96963 26.2067 -5.66271 -11.6491
lowerback -6.47422 0.921119 3.72876
upperback -7.06415 1.14383 2.59593
thorax -3.67724 0.469573 0.636326
lowerneck -16.109 -2.86062 -3.50041
upperneck 25.982 -4.29165 4.16965
head 11.2645 -1.78684 1.49643
rclavicle 1.08338e-014 6.36111e-015
rhumerus -44.9924 10.752 -85.3345
rradius 92.0085
rwrist 5.96908
rhand -22.315 -41.1431
rfingers 7.12502
rthumb 4.10461 -791.083
lclavicle 1.08338e-014 6.36111e-015
lhumerus -51.759 -6.79633 87.4687
lradius 64.4928
lwrist -5.63317
lhand -29.1588 -42.7403
lfingers 7.12502
lthumb -2.50503 -12.7752
rfemur -73.6207 5.73446 29.9391
rtibia 127.713
rfoot -0.376419 -15.8282
rtoes 7.19095
lfemur -30.4461 1.01868 -17.1499
ltibia 34.8807
lfoot -10.9462 7.79246
ltoes -18.8749
1313
root 2.57365 17.6123 2.88946 26.2185 -5.05422 -11.2073
lowerback -5.75066 0.721783 3.43943
upperback -6.99955 0.924742 2.49568
thorax -4.01652 0.366952 0.678579
lowerneck -16.5205 -2.92771 -3.67714
upperneck 25.4193 -4.40048 4.53757
head 11.153 -1.80465 1.63664
rclavicle 1.28216e-014 -2.46493e-014
rhumerus -44.6587 10.057 -85.4429
rradius 91.7017
rwrist 6.26184
rhand -22.5882 -40.0607
rfingers 7.12502
rthumb 3.84076 -790.006
lclavicle 1.28216e-014 -2.46493e-014
lhumerus -51.6148 -6.87174 87.6396
lradius 63.9682
lwrist -6.31154
lhand -29.4857 -43.0913
lfingers 7.12502
lthumb -2.82078 -13.1302
rfemur -72.9172 4.40448 29.8525
rtibia 127.339
rfoot -0.978471 -15.7793
rtoes 8.70762
lfemur -31.3458 1.47409 -17.6804
ltibia 36.1248
lfoot -13.7191 7.38309
ltoes -17.9296
1314
root 2.5863 17.4872 2.8329 26.1379 -4.14103 -10.771
lowerback -4.90032 0.529514 3.48315
upperback -7.24315 0.720932 2.36558
thorax -4.75224 0.249423 0.509692
lowerneck -16.1849 -3.0024 -4.02216
upperneck 25.0653 -4.52251 4.97492
head 10.9805 -1.84706 1.83687
rclavicle 1.04362e-014 -3.18055e-015
rhumerus -45.1717 9.12862 -85.4707
rradius 91.5836
rwrist 6.71888
rhand -22.6458 -39.3488
rfingers 7.12502
rthumb 3.7851 -789.295
lclavicle 1.04362e-014 -3.18055e-015
lhumerus -52.0731 -7.03669 87.823
lradius 63.5804
lwrist -7.75057
lhand -29.8392 -43.7626
lfingers 7.12502
lthumb -3.16214 -13.8063
rfemur -71.4849 2.77884 29.7625
rtibia 126.324
rfoot -1.89748 -15.5568
rtoes 9.76589
lfemur -32.1675 1.65935 -18.1043
ltibia 37.4276
lfoot -16.3313 6.61646
ltoes -16.5464
1315
root 2.59308 17.3122 2.76714 25.6886 -3.19053 -10.2293
lowerback -3.75204 0.249549 3.40091
upperback -7.31223 0.40802 2.23386
thorax -5.47904 0.0848047 0.414955
lowerneck -16.3155 -3.10646 -4.3769
upperneck 25.0177 -4.70387 5.48253
head 11.0217 -1.89923 2.05395
rclavicle 1.78906e-015 -7.15625e-015
rhumerus -45.518 8.33552 -85.4692
rradius 91.4685
rwrist 7.29354
rhand -23.0382 -38.7666
rfingers 7.12502
rthumb 3.40619 -788.719
lclavicle 1.78906e-015 -7.15625e-015
lhumerus -52.3946 -7.1502 87.8737
lradius 63.4284
lwrist -9.1087
lhand -29.9644 -44.3469
lfingers 7.12502
lthumb -3.28312 -14.3925
rfemur -69.8246 1.16234 29.5652
rtibia 125.58
rfoot -2.98795 -15.3187
rtoes 10.2639
lfemur -32.8834 1.61174 -18.6145
ltibia 39.0673
lfoot -19.0101 5.66528
ltoes -13.344
1316
root 2.59562 17.1275 2.70011 25.1546 -2.56546 -9.71242
lowerback -2.78031 0.0654092 3.1437
upperback -7.10616 0.198676 2.10824
thorax -5.81421 -0.01122 0.429479
lowerneck -16.7251 -3.29239 -4.78623
upperneck 24.8426 -4.96677 5.99173
head 11.0791 -1.98867 2.26499
rclavicle -6.65929e-015 2.54444e-014
rhumerus -45.331 7.54794 -85.3156
rradius 91.2176
rwrist 7.87158
rhand -23.38 -38.1239
rfingers 7.12502
rthumb 3.0761 -788.081
lclavicle -6.65929e-015 2.54444e-014
lhumerus -52.2337 -7.4331 87.9358
lradius 63.2968
lwrist -9.98903
lhand -29.7772 -44.3873
lfingers 7.12502
lthumb -3.10228 -14.4301
rfemur -68.2428 0.0888942 29.2263
rtibia 124.883
rfoot -3.85946 -15.1977
rtoes 9.77447
lfemur -33.4487 1.71702 -19.2559
ltibia 40.8149
lfoot -21.4377 5.41144
ltoes -10.8121
